<?xml version="1.0" encoding="UTF-8"?>
<svg width="102px" height="132px" viewBox="0 0 102 132" version="1.1" xmlns="http://www.w3.org/2000/svg" xmlns:xlink="http://www.w3.org/1999/xlink">
    <!-- Generator: Sketch 55.2 (78181) - https://sketchapp.com -->
    <title>login-screen&gt;default&gt;shield</title>
    <desc>Created with Sketch.</desc>
    <g id="Login" stroke="none" stroke-width="1" fill="none" fill-rule="evenodd">
        <g id="001_error-text-box-copy" transform="translate(-909.000000, -275.000000)" fill="#FFFFFF" fill-rule="nonzero">
            <g id="Login-screen">
                <g id="Logo-philips.svg" transform="translate(909.000000, 275.000000)">
                    <path d="M88.8873333,103.282261 C85.3116667,103.720826 79.8773333,104.421391 78.5626667,104.785913 C76.9742309,105.164908 75.7323431,106.408745 75.3496667,108.003957 C74.9756667,109.319652 74.2786667,114.79887 73.8536667,118.398522 C80.0063851,114.656554 85.1633811,109.46927 88.8816667,103.282261 L88.8873333,103.282261 Z M51,124.777701 C58.4773033,124.788866 65.8339545,122.883446 72.3746667,119.241478 C71.961,115.727261 71.179,109.42787 70.771,108.003957 C70.3946952,106.411313 69.158869,105.166963 67.575,104.785913 C65.569,104.216348 54.009,102.894957 54.009,102.894957 L54.009,102.097565 C54.009,102.097565 65.569,100.764783 67.575,100.206609 C69.1602077,99.8279628 70.3970898,98.5825497 70.771,96.9885652 C71.3376667,95.091913 72.539,84.4296522 72.6693333,83.2791304 C64.736,84.7543043 59.313,88.4052174 52.496,91.9308261 C45.254,95.6557826 38.1876667,98.3213478 28.9906667,98.3213478 C21.7310924,98.2849916 14.6211196,96.2437429 8.43766667,92.4206522 C13.8255041,111.56234 31.2082546,124.777162 51,124.777701 L51,124.777701 Z M7.531,29.0166522 L12.2683333,29.0166522 L12.2683333,25.2916957 L13.9683333,25.2916957 C18.3826667,25.2916957 21.1706667,23.0134348 21.1706667,19.0264783 C21.1706667,14.6522174 18.1843333,13.085913 13.3166667,13.085913 C11.3875051,13.0905172 9.4599709,13.1988895 7.54233333,13.4105652 L7.531,29.0166522 Z M23.0406667,29.0166522 L27.7666667,29.0166522 L27.7666667,22.8824348 L32.7023333,22.8824348 L32.7023333,29.0166522 L37.4396667,29.0166522 L37.4396667,13.4162609 L32.708,13.4162609 L32.708,19.6131304 L27.7666667,19.6131304 L27.7666667,13.4162609 L23.0406667,13.4162609 L23.0406667,29.0166522 Z M40.953,29.0166522 L45.6903333,29.0166522 L45.6903333,13.4162609 L40.9473333,13.4162609 L40.953,29.0166522 Z M49.1923333,29.0166522 L57.7546667,29.0166522 L58.463,25.8840435 L53.9296667,25.8840435 L53.9296667,13.4162609 L49.1923333,13.4162609 L49.1923333,29.0166522 Z M60.1573333,29.0166522 L64.8946667,29.0166522 L64.8946667,13.4162609 L60.1573333,13.4162609 L60.1573333,29.0166522 Z M68.4646667,29.0166522 L73.202,29.0166522 L73.202,25.2916957 L74.902,25.2916957 C79.3106667,25.2916957 82.1043333,23.0134348 82.1043333,19.0264783 C82.1043333,14.6522174 79.1236667,13.085913 74.2503333,13.085913 C72.3211727,13.0905498 70.3936402,13.1989221 68.476,13.4105652 L68.4646667,29.0166522 Z M51,35.9083827 C47.341191,35.906105 43.6961984,36.359516 40.1483333,37.2582609 C40.3353333,38.8188696 40.868,43.1589565 41.123,44.0930435 C41.3339476,44.9771322 42.0220754,45.6665771 42.9023333,45.8757826 C44.0016667,46.1833478 50.2293333,46.8896087 50.2293333,46.8896087 L50.2293333,47.3338696 C50.2293333,47.3338696 43.996,48.0686087 42.9023333,48.3761739 C42.0227389,48.5865764 41.3351364,49.2754951 41.123,50.158913 C40.8736667,51.0189565 40.3806667,55.005913 40.1766667,56.7316957 C43.86,57.2215217 47.8153333,57.6828696 47.8153333,57.6828696 L47.8153333,58.4802609 C47.8153333,58.4802609 36.2553333,59.8130435 34.2606667,60.3712174 C32.6709021,60.7478127 31.4279607,61.9927052 31.0476667,63.5892609 C30.515,65.4403478 29.3476667,75.5102609 29.1946667,77.0253043 C37.3603333,75.5159565 44.3246667,71.2726957 49.555,68.7381304 C56.9896667,65.1327826 63.7896667,62.1710435 73.0773333,62.1710435 C80.2801374,62.2027047 87.3362454,64.2200418 93.4773333,68.0033913 C88.003533,48.994865 70.6880246,35.9116227 51,35.9083827 L51,35.9083827 Z M90.8876667,24.7050435 C90.8876667,25.6846957 90.1736667,26.2086957 88.4226667,26.2086957 C86.5626352,26.1545649 84.7314354,25.7326474 83.0336667,24.9670435 L83.555,28.5553043 C85.1478145,29.0809236 86.8142108,29.3462955 88.4906667,29.3413735 C92.4573333,29.3413735 95.693,28.037 95.693,24.1183913 C95.693,18.9011739 88.23,19.8808261 88.23,17.3975217 C88.23,16.5488696 89.0743333,16.1558696 90.4343333,16.1558696 C91.8772475,16.1593164 93.3075911,16.4256212 94.656,16.9418696 L94.265,13.5244783 C92.8391309,13.2010824 91.3802419,13.0481383 89.9186667,13.0688261 C86.0936667,13.0688261 83.4983333,14.5895652 83.4983333,17.7677391 C83.4983333,23.2469565 90.8933333,22.142 90.8933333,24.6879565 L90.8876667,24.7050435 Z M73.457,83.1481304 C73.559,84.0537391 74.8113333,95.0577391 75.3553333,96.9771739 C75.7356273,98.5737296 76.9785687,99.818622 78.5683333,100.195217 C79.985,100.588217 86.241,101.379913 89.7373333,101.801391 C92.4798454,96.8120392 94.2366459,91.3367465 94.911,85.677 C90.1122723,83.7630404 85.0056437,82.7476865 79.8433333,82.681087 C77.7057934,82.6720441 75.5707248,82.8281853 73.457,83.1481304 L73.457,83.1481304 Z M23.3126667,55.7634348 C24.9015885,55.3857492 26.1413802,54.1374103 26.5143333,52.5396957 C26.8826667,51.2524783 27.5513333,46.001087 27.9876667,42.4071304 C21.9787312,46.1005185 16.9289255,51.1761544 13.2543333,57.2158261 C16.8243333,56.7715652 22.032,56.0766957 23.3126667,55.7406522 L23.3126667,55.7634348 Z M7.157,74.7698261 C11.9430885,76.6413652 17.0270283,77.6255312 22.1623333,77.6746087 C24.2507435,77.6741134 26.3355665,77.5007594 28.3956667,77.1563043 C28.22,75.5672174 27.0696667,65.4118696 26.537,63.5664783 C26.1609603,61.9716366 24.9220587,60.726398 23.3353333,60.3484348 C21.9413333,59.9611304 15.9233333,59.2093043 12.3873333,58.7707391 C9.64850801,63.719534 7.88061001,69.150902 7.17966667,74.7698261 L7.157,74.7698261 Z M38.6183333,50.1361304 C38.4064557,49.2505103 37.7157782,48.5607075 36.8333333,48.3533913 C35.955,48.1141739 31.892,47.6015652 30.2203333,47.3965217 C30.532,49.7146522 30.8436667,51.7992609 31.059,52.5226087 C31.4362161,54.1220389 32.680046,55.3700262 34.272,55.7463478 C35.0313333,55.957087 37.1733333,56.2817391 39.542,56.6006957 C39.3266667,54.8350435 38.8506667,50.9676957 38.6013333,50.1190435 L38.6183333,50.1361304 Z M38.6013333,44.0474783 C38.8506667,43.1703478 39.3606667,39.0751739 39.559,37.3949565 C36.0455878,38.3375532 32.6629066,39.7170627 29.4893333,41.5015217 C29.665,42.988087 29.903,44.918913 30.141,46.77 C31.7616667,46.5820435 35.938,46.0751304 36.8333333,45.8302174 C37.7098826,45.6184443 38.393444,44.9291844 38.6013333,44.0474783 L38.6013333,44.0474783 Z M7.14,85.825087 C12.733,89.4019565 20.5133333,91.1733043 27.0413333,91.1733043 C36.924,91.1733043 42.8683333,88.2172609 49.385,84.9479565 C58.3383333,80.454087 65.773,75.721 77.4406667,75.7836522 C83.6170616,75.7889178 89.7038883,77.2686289 95.2,80.1009565 C95.1912927,78.2536527 95.0701777,76.4086136 94.8373333,74.5761739 C89.25,71.0277826 81.4923333,69.1937826 75.004,69.1937826 C65.127,69.1937826 59.194,72.2352609 52.6716667,75.459 C44.3246667,79.668087 36.3176667,84.6859565 24.684,84.6859565 C18.4619341,84.7136347 12.3257367,83.2264573 6.8,80.3515652 L6.8,80.3515652 C6.80409776,82.1812723 6.91763591,84.009077 7.14,85.825087 L7.14,85.825087 Z M102,3.76782609 L102,80.2946087 C102,108.605205 79.1665222,131.555478 51,131.555478 C22.8334778,131.555478 0,108.605205 0,80.2946087 L0,3.76782609 C16.9380269,1.91850424 33.9623483,0.981179653 51,0.959869565 C73.5533333,0.959869565 95.1433333,2.82234783 102,3.76782609 L102,3.76782609 Z M63.0643333,111.210609 C62.8206667,110.34487 62.2596667,105.469391 62.2596667,105.469391 L61.9083333,105.469391 C61.9083333,105.469391 61.3416667,110.34487 61.1036667,111.210609 C60.9408446,111.899115 60.4060028,112.436693 59.721,112.600348 C58.854,112.839565 54.009,113.414826 54.009,113.414826 L54.009,113.733783 C54.009,113.733783 58.8596667,114.303348 59.721,114.548261 C60.4038248,114.712169 60.9377896,115.246666 61.1036667,115.932304 C61.3473333,116.798043 61.9083333,121.673522 61.9083333,121.673522 L62.2596667,121.673522 C62.2596667,121.673522 62.8263333,116.798043 63.0643333,115.932304 C63.2302104,115.246666 63.7641752,114.712169 64.447,114.548261 C65.314,114.309043 70.159,113.733783 70.159,113.733783 L70.159,113.386348 C70.159,113.386348 65.314,112.816783 64.447,112.57187 C63.7626631,112.407018 63.2283463,111.869968 63.0643333,111.18213 L63.0643333,111.210609 Z M77.6333333,19.0948261 C77.6333333,17.1355217 76.5283333,16.0248696 74.1936667,16.0248696 C73.95,16.0248696 73.6893333,16.0248696 73.4173333,16.0248696 L73.4173333,22.4837391 L74.2333333,22.4837391 C76.6983333,22.4837391 77.673,21.111087 77.673,19.0663478 L77.6333333,19.0948261 Z M13.3053333,22.4837391 L12.495,22.4837391 L12.495,16.0419565 C12.7726667,16.0419565 13.0333333,16.0419565 13.277,16.0419565 C15.6116667,16.0419565 16.7166667,17.1526087 16.7166667,19.111913 C16.7166667,21.0712174 15.742,22.5293043 13.277,22.5293043 L13.3053333,22.4837391 Z" id="login-screen&gt;default&gt;shield"></path>
                </g>
            </g>
        </g>
    </g>
</svg>